<svg width="180" height="40" viewBox="0 0 180 40" fill="none" xmlns="http://www.w3.org/2000/svg">
  <path d="M20 5L35 20L20 35L5 20L20 5Z" fill="#4A6DE5" stroke="#4A6DE5" stroke-width="2"/>
  <path d="M60.304 29V11.4H67.328C69.12 11.4 70.624 11.768 71.84 12.504C73.072 13.24 74 14.248 74.624 15.528C75.264 16.808 75.584 18.28 75.584 19.944C75.584 21.624 75.264 23.112 74.624 24.408C74 25.688 73.072 26.696 71.84 27.432C70.624 28.152 69.12 28.512 67.328 28.512H61.952V25.56H67.112C68.264 25.56 69.2 25.336 69.92 24.888C70.656 24.424 71.192 23.784 71.528 22.968C71.88 22.136 72.056 21.128 72.056 19.944C72.056 18.76 71.88 17.76 71.528 16.944C71.192 16.128 70.656 15.496 69.92 15.048C69.2 14.584 68.264 14.352 67.112 14.352H63.832V29H60.304ZM89.0879 29.288C87.3919 29.288 85.9119 28.888 84.6479 28.088C83.3839 27.272 82.3999 26.152 81.6959 24.728C81.0079 23.304 80.6639 21.672 80.6639 19.832C80.6639 17.992 81.0159 16.36 81.7199 14.936C82.4239 13.512 83.4079 12.4 84.6719 11.6C85.9519 10.784 87.4399 10.376 89.1359 10.376C90.8319 10.376 92.3119 10.784 93.5759 11.6C94.8559 12.4 95.8399 13.512 96.5279 14.936C97.2319 16.36 97.5839 17.992 97.5839 19.832C97.5839 21.672 97.2319 23.304 96.5279 24.728C95.8399 26.152 94.8559 27.272 93.5759 28.088C92.2959 28.888 90.8079 29.288 89.0879 29.288ZM89.0879 26.12C90.1199 26.12 90.9919 25.848 91.7039 25.304C92.4319 24.76 92.9839 24.016 93.3599 23.072C93.7519 22.128 93.9479 21.048 93.9479 19.832C93.9479 18.616 93.7519 17.536 93.3599 16.592C92.9839 15.648 92.4319 14.904 91.7039 14.36C90.9919 13.816 90.1199 13.544 89.0879 13.544C88.0559 13.544 87.1759 13.816 86.4479 14.36C85.7359 14.904 85.1839 15.648 84.7919 16.592C84.3999 17.536 84.2039 18.616 84.2039 19.832C84.2039 21.048 84.3999 22.128 84.7919 23.072C85.1839 24.016 85.7359 24.76 86.4479 25.304C87.1759 25.848 88.0559 26.12 89.0879 26.12ZM119.3 29H115.88L107.096 16.68V29H103.568V11.4H107.096L115.88 23.648V11.4H119.3V29ZM133.029 29.288C131.333 29.288 129.853 28.888 128.589 28.088C127.325 27.272 126.341 26.152 125.637 24.728C124.949 23.304 124.605 21.672 124.605 19.832C124.605 17.992 124.957 16.36 125.661 14.936C126.365 13.512 127.349 12.4 128.613 11.6C129.893 10.784 131.381 10.376 133.077 10.376C134.773 10.376 136.253 10.784 137.517 11.6C138.797 12.4 139.781 13.512 140.469 14.936C141.173 16.36 141.525 17.992 141.525 19.832C141.525 21.672 141.173 23.304 140.469 24.728C139.781 26.152 138.797 27.272 137.517 28.088C136.237 28.888 134.749 29.288 133.029 29.288ZM133.029 26.12C134.061 26.12 134.933 25.848 135.645 25.304C136.373 24.76 136.925 24.016 137.301 23.072C137.693 22.128 137.889 21.048 137.889 19.832C137.889 18.616 137.693 17.536 137.301 16.592C136.925 15.648 136.373 14.904 135.645 14.36C134.933 13.816 134.061 13.544 133.029 13.544C131.997 13.544 131.117 13.816 130.389 14.36C129.677 14.904 129.125 15.648 128.733 16.592C128.341 17.536 128.145 18.616 128.145 19.832C128.145 21.048 128.341 22.128 128.733 23.072C129.125 24.016 129.677 24.76 130.389 25.304C131.117 25.848 131.997 26.12 133.029 26.12ZM156.273 29H145.473V11.4H155.985V14.352H149.001V18.608H155.361V21.536H149.001V26.048H156.273V29ZM168.218 29.288C166.778 29.288 165.49 28.96 164.354 28.304C163.218 27.648 162.322 26.712 161.666 25.496C161.01 24.28 160.682 22.848 160.682 21.2C160.682 19.568 161.018 18.144 161.69 16.928C162.378 15.696 163.306 14.744 164.474 14.072C165.642 13.4 166.962 13.064 168.434 13.064C169.682 13.064 170.794 13.28 171.77 13.712C172.762 14.144 173.586 14.776 174.242 15.608C174.898 16.424 175.314 17.4 175.49 18.536H171.962C171.698 17.768 171.234 17.152 170.57 16.688C169.922 16.224 169.13 15.992 168.194 15.992C167.418 15.992 166.714 16.184 166.082 16.568C165.45 16.936 164.946 17.488 164.57 18.224C164.21 18.944 164.03 19.808 164.03 20.816C164.03 21.84 164.218 22.728 164.594 23.48C164.97 24.216 165.482 24.784 166.13 25.184C166.778 25.568 167.49 25.76 168.266 25.76C168.85 25.76 169.378 25.656 169.85 25.448C170.322 25.24 170.722 24.936 171.05 24.536C171.394 24.136 171.642 23.656 171.794 23.096H175.346C175.154 24.184 174.738 25.144 174.098 25.976C173.474 26.792 172.674 27.432 171.698 27.888C170.738 28.328 169.562 28.56 168.218 29.288Z" fill="#1A202C"/>
</svg>