<svg xmlns="http://www.w3.org/2000/svg" viewBox="0 0 24 24" width="24" height="24" fill="none" stroke="currentColor" stroke-width="2" stroke-linecap="round" stroke-linejoin="round">
  <path d="M1 12.225c0-3.998 0-5.996 1.244-7.368a6 6 0 0 1 1.613-1.613C5.229 2 7.228 2 11.225 2H12.8c3.997 0 5.996 0 7.368 1.244a6 6 0 0 1 1.613 1.613C23 6.229 23 8.228 23 12.225v.549c0 3.998 0 5.997-1.244 7.369a6.001 6.001 0 0 1-1.613 1.613C18.771 23 16.772 23 12.775 23h-1.575c-3.997 0-5.996 0-7.368-1.244a6.002 6.002 0 0 1-1.613-1.613C1 18.771 1 16.772 1 12.775v-.549Z"/>
  <path d="M5.8 13.4h4c1.3 0 2.4 1 2.4 2.3 0 1.3-1.1 2.3-2.4 2.3H5.8V6h3.5c1.2 0 2.2.9 2.2 2.2 0 1.2-1 2.2-2.2 2.2H5.8v3ZM16.3 12c-1.9 0-3.4 1.5-3.4 3.4s1.5 3.4 3.4 3.4c1.1 0 2.2-.6 2.9-1.4"/>
  <path d="M13.6 8.4h5.3"/>
</svg>